<svg xmlns="http://www.w3.org/2000/svg" version="1.1" xmlns:xlink="http://www.w3.org/1999/xlink" xmlns:svgjs="http://svgjs.com/svgjs" width="512" height="512" x="0" y="0" viewBox="0 0 512 512" style="enable-background:new 0 0 512 512" xml:space="preserve" class=""><g><path d="M502 153.963V141.75c0-10.312-7.299-18.943-17-21.018V106.25h19.5c4.143 0 7.5-3.357 7.5-7.5s-3.357-7.5-7.5-7.5h-54c-4.143 0-7.5 3.357-7.5 7.5s3.357 7.5 7.5 7.5H470v14.482c-9.701 2.075-17 10.707-17 21.018v11.055a47.412 47.412 0 0 0-8.266 2.03l-80.436 27.677c-6.063-12.569-18.935-21.261-33.799-21.261h-7.052c-3.643-24.854-25.098-44-50.948-44h-33c-25.85 0-47.305 19.146-50.948 44H181.5c-14.864 0-27.736 8.693-33.799 21.261l-28.191-9.7a7.498 7.498 0 0 0-9.532 4.651 7.499 7.499 0 0 0 4.651 9.532L144 197.101v31.982l-72.907-39.98a47.618 47.618 0 0 0-22.841-5.853H28.5c-7.444 0-13.5-6.056-13.5-13.5 0-1.379 1.121-2.5 2.5-2.5h34.311c3.607 0 7.165.595 10.574 1.769l19.078 6.564a7.494 7.494 0 0 0 9.532-4.651 7.499 7.499 0 0 0-4.651-9.532l-19.077-6.564a47.4 47.4 0 0 0-8.267-2.03V141.75c0-10.312-7.299-18.943-17-21.018V106.25h19.5c4.143 0 7.5-3.357 7.5-7.5s-3.357-7.5-7.5-7.5h-54c-4.143 0-7.5 3.357-7.5 7.5s3.357 7.5 7.5 7.5H27v14.482c-9.701 2.075-17 10.707-17 21.018v12.213c-5.902 2.816-10 8.824-10 15.787 0 15.715 12.785 28.5 28.5 28.5h19.752a32.586 32.586 0 0 1 15.627 4.004l80.414 44.097c1.057 8.593 5.024 16.295 10.893 22.083l-16.238 19.568c-24.148 29.1-37.447 65.952-37.447 103.769v6.479c0 12.406 10.094 22.5 22.5 22.5s22.5-10.094 22.5-22.5v-6.479c0-27.344 9.616-53.991 27.077-75.033l31.107-37.488H234v19h-7.237c-12 0-21.763 9.763-21.763 21.763v58.475c0 12 9.763 21.763 21.763 21.763H243c4.143 0 7.5-3.357 7.5-7.5s-3.357-7.5-7.5-7.5h-16.237a6.77 6.77 0 0 1-6.763-6.763v-58.475a6.77 6.77 0 0 1 6.763-6.763h58.475a6.77 6.77 0 0 1 6.763 6.763v58.475a6.77 6.77 0 0 1-6.763 6.763H278c-4.143 0-7.5 3.357-7.5 7.5s3.357 7.5 7.5 7.5h7.237c12 0 21.763-9.763 21.763-21.763v-58.475c0-12-9.763-21.763-21.763-21.763H279v-19h28.316l31.107 37.488c17.461 21.042 27.077 47.689 27.077 75.033v6.479c0 12.406 10.094 22.5 22.5 22.5s22.5-10.094 22.5-22.5v-6.479c0-18.159-3.034-36.098-9.018-53.319a7.503 7.503 0 0 0-9.547-4.623 7.502 7.502 0 0 0-4.623 9.547c5.433 15.634 8.188 31.917 8.188 48.396v6.479c0 4.136-3.364 7.5-7.5 7.5s-7.5-3.364-7.5-7.5v-6.479c0-30.834-10.844-60.884-30.534-84.611l-23.159-27.91h3.693c4.817 0 9.419-.923 13.654-2.585l17.356 20.916a147.395 147.395 0 0 1 11.399 15.755 7.493 7.493 0 0 0 10.338 2.37 7.498 7.498 0 0 0 2.369-10.338 162.387 162.387 0 0 0-12.563-17.364l-16.238-19.568c5.868-5.788 9.836-13.49 10.893-22.083l80.415-44.098a32.59 32.59 0 0 1 15.626-4.003H483.5c15.715 0 28.5-12.785 28.5-28.5 0-6.966-4.098-12.975-10-15.79zM25 141.75c0-3.584 2.916-6.5 6.5-6.5h6c3.584 0 6.5 2.916 6.5 6.5v10.5H25zm443 0c0-3.584 2.916-6.5 6.5-6.5h6c3.584 0 6.5 2.916 6.5 6.5v10.5h-19zM162.034 307.16c-19.69 23.728-30.534 53.777-30.534 84.611v6.479c0 4.136-3.364 7.5-7.5 7.5s-7.5-3.364-7.5-7.5v-6.479c0-34.325 12.071-67.776 33.99-94.19l17.356-20.916a37.284 37.284 0 0 0 13.654 2.585h3.693zM264 298.25h-15v-19h15zm46.815-34H181.5c-12.406 0-22.5-10.094-22.5-22.5v-43c0-12.406 10.094-22.5 22.5-22.5H213c4.143 0 7.5-3.357 7.5-7.5s-3.357-7.5-7.5-7.5h-9.222c3.469-16.54 18.166-29 35.722-29h33c17.556 0 32.253 12.46 35.722 29H248c-4.143 0-7.5 3.357-7.5 7.5s3.357 7.5 7.5 7.5h82.5c12.406 0 22.5 10.094 22.5 22.5v43c0 12.406-10.094 22.5-22.5 22.5zm172.685-81h-19.752a47.613 47.613 0 0 0-22.84 5.852L368 229.083v-31.982l81.616-28.082a32.393 32.393 0 0 1 10.573-1.769H494.5c1.379 0 2.5 1.121 2.5 2.5 0 7.444-6.056 13.5-13.5 13.5z" fill="#000000" data-original="#000000"></path><path d="M278.5 349.25c0-12.406-10.094-22.5-22.5-22.5s-22.5 10.094-22.5 22.5 10.094 22.5 22.5 22.5 22.5-10.094 22.5-22.5zm-22.5 7.5c-4.136 0-7.5-3.364-7.5-7.5s3.364-7.5 7.5-7.5 7.5 3.364 7.5 7.5-3.364 7.5-7.5 7.5z" fill="#000000" data-original="#000000"></path></g></svg>