<svg xmlns="http://www.w3.org/2000/svg" version="1.1" xmlns:xlink="http://www.w3.org/1999/xlink" xmlns:svgjs="http://svgjs.com/svgjs" width="512" height="512" x="0" y="0" viewBox="0 0 512 512" style="enable-background:new 0 0 512 512" xml:space="preserve" class=""><g><path d="M451.972 264.081v-6" style="stroke-width:15;stroke-linecap:round;stroke-linejoin:round;" fill="none" stroke="#000000" stroke-width="15" stroke-linecap="round" stroke-linejoin="round" data-original="#000000" class=""></path><path d="M451.972 229.495v-64.32" style="stroke-width:15;stroke-linecap:round;stroke-linejoin:round;stroke-dasharray:10.7199,28.5865;" fill="none" stroke="#000000" stroke-width="15" stroke-linecap="round" stroke-linejoin="round" stroke-dasharray="10.7199,28.5865" data-original="#000000" class=""></path><path d="M451.972 150.882v-6M60.028 264.081v-6" style="stroke-width:15;stroke-linecap:round;stroke-linejoin:round;" fill="none" stroke="#000000" stroke-width="15" stroke-linecap="round" stroke-linejoin="round" data-original="#000000" class=""></path><path d="M60.028 229.495v-64.32" style="stroke-width:15;stroke-linecap:round;stroke-linejoin:round;stroke-dasharray:10.7199,28.5865;" fill="none" stroke="#000000" stroke-width="15" stroke-linecap="round" stroke-linejoin="round" stroke-dasharray="10.7199,28.5865" data-original="#000000" class=""></path><path d="M60.028 150.882v-6M431.768 284.285h-6" style="stroke-width:15;stroke-linecap:round;stroke-linejoin:round;" fill="none" stroke="#000000" stroke-width="15" stroke-linecap="round" stroke-linejoin="round" data-original="#000000" class=""></path><path d="M393.812 284.285H102.21" style="stroke-width:15;stroke-linecap:round;stroke-linejoin:round;stroke-dasharray:11.9836,31.9564;" fill="none" stroke="#000000" stroke-width="15" stroke-linecap="round" stroke-linejoin="round" stroke-dasharray="11.9836,31.9564" data-original="#000000" class=""></path><path d="M86.232 284.285h-6M431.768 124.679h-6" style="stroke-width:15;stroke-linecap:round;stroke-linejoin:round;" fill="none" stroke="#000000" stroke-width="15" stroke-linecap="round" stroke-linejoin="round" data-original="#000000" class=""></path><path d="M393.812 124.679H102.21" style="stroke-width:15;stroke-linecap:round;stroke-linejoin:round;stroke-dasharray:11.9836,31.9564;" fill="none" stroke="#000000" stroke-width="15" stroke-linecap="round" stroke-linejoin="round" stroke-dasharray="11.9836,31.9564" data-original="#000000" class=""></path><path d="M86.232 124.679h-6" style="stroke-width:15;stroke-linecap:round;stroke-linejoin:round;" fill="none" stroke="#000000" stroke-width="15" stroke-linecap="round" stroke-linejoin="round" data-original="#000000" class=""></path><path d="M161.9 7.5h328.46c7.81 0 14.14 6.33 14.14 14.14v133.015M7.5 314.51V21.64c0-7.81 6.33-14.14 14.14-14.14H126.9M7.5 349.51v51.95c0 7.81 6.33 14.15 14.14 14.15H343.4M504.5 189.658V401.46c0 7.81-6.33 14.15-14.14 14.15h-40.641M7.5 72.15h497M43.866 39.825h0M78.211 39.825h0M112.557 39.825h0M222.743 236.807l25.521-64.65 25.522 64.65M230.314 220.932h36.023M299.505 236.807v-64.53l45.303 64.53v-64.65M414.632 204.482c0 17.813-9.887 31.909-25.572 32.183-5.221.091-18.715.142-18.715.142l-.131-64.65h18.31c17.204 0 26.108 14.511 26.108 32.325zM131.024 187.033c0 8.216-6.66 14.876-14.876 14.876-4.075 0-18.779.066-18.779.066v-29.818h18.779c8.216 0 14.876 6.66 14.876 14.876z" style="stroke-width:15;stroke-linecap:round;stroke-linejoin:round;stroke-miterlimit:10;" fill="none" stroke="#000000" stroke-width="15" stroke-linecap="round" stroke-linejoin="round" stroke-miterlimit="10" data-original="#000000" class=""></path><path d="M136.829 219.328c0 9.611-7.791 17.402-17.402 17.402-4.766 0-22.059.077-22.059.077v-34.881h22.059c9.611 0 17.402 7.791 17.402 17.402zM170.162 205.951l27.157 30.856M162.366 205.835v30.972M197.319 188.958c0 9.279-8.137 16.802-17.753 16.802-4.769 0-17.201.074-17.201.074l.021-33.678h17.18c9.617.001 17.753 7.523 17.753 16.802zM466.114 144.882h-28.285a6.062 6.062 0 0 1-6.061-6.061v-28.285a6.062 6.062 0 0 1 6.061-6.061h28.285a6.062 6.062 0 0 1 6.061 6.061v28.285a6.06 6.06 0 0 1-6.061 6.061zM74.171 144.882H45.886a6.062 6.062 0 0 1-6.061-6.061v-28.285a6.062 6.062 0 0 1 6.061-6.061h28.285a6.062 6.062 0 0 1 6.061 6.061v28.285a6.06 6.06 0 0 1-6.061 6.061zM466.114 304.488h-28.285a6.062 6.062 0 0 1-6.061-6.061v-28.285a6.062 6.062 0 0 1 6.061-6.061h28.285a6.062 6.062 0 0 1 6.061 6.061v28.285a6.062 6.062 0 0 1-6.061 6.061zM74.171 304.488H45.886a6.062 6.062 0 0 1-6.061-6.061v-28.285a6.062 6.062 0 0 1 6.061-6.061h28.285a6.062 6.062 0 0 1 6.061 6.061v28.285a6.062 6.062 0 0 1-6.061 6.061zM415.277 344.403l-91.848-34.945a10.827 10.827 0 0 0-13.971 13.971l34.945 91.848a14.14 14.14 0 0 0 13.381 9.112l40.98-.473 25.153-25.153.473-40.98a14.144 14.144 0 0 0-9.113-13.38zm-29.069 41.805c-6.312 6.312-16.545 6.312-22.857 0-6.312-6.312-6.312-16.545 0-22.857s16.546-6.312 22.857 0c6.312 6.312 6.312 16.545 0 22.857zM311.922 311.922l51.429 51.429M418.764 446.774l32.011 57.726M504.5 450.775l-57.726-32.011" style="stroke-width:15;stroke-linecap:round;stroke-linejoin:round;stroke-miterlimit:10;" fill="none" stroke="#000000" stroke-width="15" stroke-linecap="round" stroke-linejoin="round" stroke-miterlimit="10" data-original="#000000" class=""></path><path d="m397.335 425.345 28.01-28.01a8.082 8.082 0 0 1 11.429 0l10 10a8.082 8.082 0 0 1 0 11.429l-28.01 28.01a8.082 8.082 0 0 1-11.429 0l-10-10a8.082 8.082 0 0 1 0-11.429z" style="stroke-width:15;stroke-linecap:round;stroke-linejoin:round;stroke-miterlimit:10;" fill="none" stroke="#000000" stroke-width="15" stroke-linecap="round" stroke-linejoin="round" stroke-miterlimit="10" data-original="#000000" class=""></path></g></svg>