<svg xmlns="http://www.w3.org/2000/svg" version="1.1" xmlns:xlink="http://www.w3.org/1999/xlink" xmlns:svgjs="http://svgjs.com/svgjs" width="512" height="512" x="0" y="0" viewBox="0 0 66 66" style="enable-background:new 0 0 512 512" xml:space="preserve" class=""><g><path d="M53.7 46.6V42c0-2.2-1.8-4-4-4h-8.2l-1.3-2.9c-.6-1.3-1.9-2.2-3.4-2.2h-7.5c-1.5 0-2.8.9-3.4 2.2L24.6 38h-8.3c-2.2 0-4 1.8-4 4v19c0 2.2 1.8 4 4 4h33.4c1.1 0 2.1-.4 2.8-1.2.8-.8 1.2-1.8 1.2-2.8V46.6c0 .1 0 .1 0 0zM33 43.3c4.5 0 8.1 3.6 8.1 8.1s-3.6 8.1-8.1 8.1-8.1-3.6-8.1-8.1 3.6-8.1 8.1-8.1zm-15.5-1.4h2.9c.6 0 1 .5 1 1s-.4 1-1 1h-2.9c-.5 0-1-.5-1-1s.5-1 1-1zm-3.2 5.8h9.3c-.4 1.1-.7 2.4-.7 3.7s.3 2.5.7 3.7h-9.3zM51.7 61c0 .5-.2 1-.6 1.4s-.9.6-1.4.6H16.3c-1.1 0-2-.9-2-2v-4h10.3c1.8 2.7 4.9 4.4 8.3 4.4 3.5 0 6.5-1.8 8.3-4.4h10.3v4zm-9.3-5.9c.4-1.1.7-2.4.7-3.7s-.3-2.5-.7-3.7h9.3v7.4z" fill="#000000" data-original="#000000" class=""></path><path d="M33 45.7c-3.1 0-5.7 2.6-5.7 5.7s2.5 5.7 5.7 5.7c3.1 0 5.7-2.5 5.7-5.7s-2.6-5.7-5.7-5.7zm0 8.1c-1.3 0-2.4-1.1-2.4-2.4S31.7 49 33 49s2.4 1.1 2.4 2.4-1.1 2.4-2.4 2.4zM54.5 11.7c-.2.3-.6.4-1 .4l-3.5-.7-1.5 3.2c-.2.4-.5.6-.9.6s-.7-.2-.9-.6l-4-7.9c-1.9.7-3.9 1.3-5.8 1.8l2.5 7.9c.1.4 0 .8-.3 1-.3.3-.7.3-1 .2l-3.3-1.3-2 3c-.2.3-.5.4-.8.4h-.1c-.4-.1-.7-.3-.8-.7l-2.7-8.5c-1.7.4-3.5.7-5.1 1l2.2 8.2c.1.4 0 .8-.3 1s-.7.3-1.1.2l-3.3-1.4-2.1 2.9c-.2.3-.5.4-.8.4h-.2c-.4-.1-.7-.4-.8-.7L14.4 13c-4.7.6-8.9.9-12.2 1.1-.5 0-1-.4-1-1 0-.5.4-1 .9-1 10.9-.6 31.8-2.9 49.1-11 .5-.2 1.1 0 1.3.5s0 1.1-.5 1.3c-.3.2-.7.3-1.1.5l3.6 7.2c.3.4.3.8 0 1.1z" fill="#000000" data-original="#000000" class=""></path><path d="M64.3 12.6c-1.5.7-2.9 1.4-4.4 2.1l3.5 8.5c.1.4.1.8-.2 1-.3.3-.7.4-1 .3l-3.7-1.1-1.9 3.3c-.2.3-.5.5-.9.5h-.1c-.4 0-.7-.3-.9-.6l-3.5-8.5c-1.6.6-3.3 1.2-4.9 1.7l3.3 8.2c.1.4.1.8-.2 1.1s-.7.4-1 .3l-3.7-1.1-1.9 3.3c-.2.3-.5.5-.9.5h-.1c-.4 0-.7-.3-.9-.6l-3.6-9c-14.6 4-27.7 5.7-34.3 6.4h-.1c-.5 0-.9-.4-1-.9 0-.5.4-1 .9-1.1 10.5-1.1 37.3-4.7 60.4-16 .5-.2 1.1 0 1.3.4.5.4.3 1-.2 1.3z" fill="#000000" data-original="#000000" class=""></path></g></svg>