<svg xmlns="http://www.w3.org/2000/svg" version="1.1" xmlns:xlink="http://www.w3.org/1999/xlink" xmlns:svgjs="http://svgjs.com/svgjs" width="512" height="512" x="0" y="0" viewBox="0 0 64 64" style="enable-background:new 0 0 512 512" xml:space="preserve" class=""><g><path d="M25 48.507H5.042v-22h36v3.822a1 1 0 1 0 2 0V19.507a1 1 0 0 0-1-1H15.473l26.166-4.613a1 1 0 0 0 .81-1.159l-1.042-5.909a1 1 0 0 0-1.158-.811l-37.423 6.6a1 1 0 0 0-.81 1.158l1.026 5.821v29.913a1 1 0 0 0 1 1H25a1 1 0 1 0 0-2Zm4.445-38.556 2.982 2.089a1 1 0 0 0 1.146-1.64l-1.343-.94 2.789-.492 4.633 3.245-8.363 1.475-4.633-3.245Zm-.945 4.228-2.788.491-4.635-3.244 2.789-.492Zm-5.574.982-2.779.49-4.634-3.244 2.779-.49Zm-5.565.982-2.788.491-4.63-3.244 2.789-.492Zm-5.573.982L9 17.617l-4.631-3.245 2.789-.491Zm22.926 7.382h-2.828l-2.214-2.214a1 1 0 0 0-1.414 1.414l.8.8h-2.832l-4-4h8.492Zm-1.172-4h2.832l4 4h-2.828Zm-10.149 4h-2.817l-4-4H19.4Zm-9.649-4 4 4h-2.828l-4-4Zm-1.66 4H9.256l-4-4h2.832Zm-5.871-6.4-1.363.241-.241-1.364Zm-1.171 5.015 1.386 1.385H5.042Zm36-.779-1.836-1.836h1.836ZM39.93 9.967l-2.13-1.49 1.807-.318Z" fill="#000000" data-original="#000000" class=""></path><path d="m27.555 36.675-6-4a1 1 0 0 0-1.555.832v8a1 1 0 0 0 1.555.832l6-4a1 1 0 0 0 0-1.664ZM22 39.639v-4.263l3.2 2.131Z" fill="#000000" data-original="#000000" class=""></path><path d="M61 48a1 1 0 0 0 1-1v-3a1 1 0 0 0-1.352-.937L54 45.557V45a5.006 5.006 0 0 0-5-5h-.026A4.948 4.948 0 0 0 50 37a4.987 4.987 0 0 0-9.788-1.361A3.983 3.983 0 0 0 33.556 40H33a4.943 4.943 0 0 0-1.377.217 8.955 8.955 0 0 0-.855-7.311 1 1 0 1 0-1.717 1.026 7.021 7.021 0 1 1-2.488-2.466 1 1 0 1 0 1.01-1.726A9 9 0 1 0 28 45.011V55a5.006 5.006 0 0 0 5 5h9a1 1 0 0 0 0-2h-9a3 3 0 0 1-3-3V45a3 3 0 0 1 3-3h16a3 3 0 0 1 3 3v10a3 3 0 0 1-3 3h-3a1 1 0 0 0 0 2h3a5.006 5.006 0 0 0 5-5v-.557l6.648 2.494A1.026 1.026 0 0 0 61 57a1 1 0 0 0 1-1v-5a1 1 0 0 0-2 0v3.557l-6-2.25v-4.614l6-2.25V47a1 1 0 0 0 1 1ZM45 34a3 3 0 1 1-3 3 3 3 0 0 1 3-3Zm-3.974 6h-.582a4.023 4.023 0 0 0 .256-.492 4.93 4.93 0 0 0 .326.492ZM35 38a2 2 0 1 1 2 2 2 2 0 0 1-2-2Z" fill="#000000" data-original="#000000" class=""></path><path d="M45 49a1 1 0 0 0-1-1H33a1 1 0 0 0-1 1v6a1 1 0 0 0 1 1h11a1 1 0 0 0 1-1Zm-2 5h-9v-4h9Z" fill="#000000" data-original="#000000" class=""></path><circle cx="48" cy="45" r="1" fill="#000000" data-original="#000000" class=""></circle><circle cx="48" cy="50" r="1" fill="#000000" data-original="#000000" class=""></circle><circle cx="48" cy="55" r="1" fill="#000000" data-original="#000000" class=""></circle><path d="M43 46a1 1 0 0 0 0-2h-9a1 1 0 0 0 0 2Z" fill="#000000" data-original="#000000" class=""></path><circle cx="45" cy="37" r="1" fill="#000000" data-original="#000000" class=""></circle></g></svg>