<svg xmlns="http://www.w3.org/2000/svg" version="1.1" xmlns:xlink="http://www.w3.org/1999/xlink" xmlns:svgjs="http://svgjs.com/svgjs" width="512" height="512" x="0" y="0" viewBox="0 0 507.527 507" style="enable-background:new 0 0 512 512" xml:space="preserve" class=""><g><path d="M14.102 14.363h49.543V.262h-50.29C5.988.262 0 6.254 0 13.622V63.91h14.102zM14.172 444.086H.07v50.293c0 7.36 5.992 13.351 13.356 13.351h50.293V493.63H14.172zM493.375 63.914h14.102V13.621c0-7.363-5.993-13.355-13.356-13.355h-50.289v14.097h49.543zM493.426 444.078v49.543h-49.547v14.098h50.293c7.363 0 13.355-5.989 13.355-13.352v-50.289zM218.797 256.418l-17.906-35.246c-5.594-10.996-21.313-10.973-26.86.047l-60.91 121.183h62.438zM199.156 106.313c0 23.183-18.793 41.976-41.976 41.976-23.184 0-41.977-18.793-41.977-41.976s18.793-41.977 41.977-41.977c23.183 0 41.976 18.793 41.976 41.977zM392.531 342.402l-83.426-164.261c-7.328-14.426-27.96-14.403-35.25.074l-47.136 93.812-35.387 70.375zM335.027 401.602h113.977v14.097H335.027zM48.328 401.602h229.125v14.097H48.328zm0 0" fill="#000000" data-original="#000000"></path><path d="M444.89 356.508v-33.79c12.223-3.105 21.247-14.198 21.247-27.378a28.023 28.023 0 0 0-4.348-15.043c-2.047-3.266-1.883-7.45.14-10.715a28.322 28.322 0 0 0 4.208-14.969c-.098-14.992-12.434-27.683-27.426-28.133-16.004-.468-29.14 12.364-29.14 28.274a28.07 28.07 0 0 0 4.347 15.039c2.047 3.266 1.879 7.45-.14 10.715-2.704 4.351-4.231 9.472-4.208 14.969.07 12.882 9.164 24.02 21.22 27.214v33.817h-31.087l-.008-.004H184.258l-.004.004H72.414v-33.79c12.223-3.105 21.246-14.198 21.246-27.378a28.023 28.023 0 0 0-4.348-15.043c-2.042-3.266-1.878-7.45.141-10.715a28.252 28.252 0 0 0 4.207-14.969c-.094-14.992-12.433-27.683-27.426-28.133-16.004-.468-29.14 12.364-29.14 28.274a28.072 28.072 0 0 0 4.351 15.039c2.043 3.266 1.88 7.45-.14 10.715-2.703 4.351-4.235 9.472-4.211 14.969.07 12.882 9.168 24.02 21.222 27.214.653.168 1.32.278 1.989.403-.43-.086-.864-.145-1.285-.242-.23-.063-.473-.094-.704-.16v33.816H14.254v14.101H493.37v-14.101zM65.368 323.602h-.87c-1.005-.032-2-.137-2.981-.282.98.137 1.976.23 2.98.266.399.012.781 0 1.176 0-.106 0-.203.016-.305.016zm0 0" fill="#000000" data-original="#000000"></path></g></svg>