<svg xmlns="http://www.w3.org/2000/svg" version="1.1" xmlns:xlink="http://www.w3.org/1999/xlink" xmlns:svgjs="http://svgjs.com/svgjs" width="512" height="512" x="0" y="0" viewBox="0 0 512 512" style="enable-background:new 0 0 512 512" xml:space="preserve" class=""><g><path d="M501.33 405.33v64c-.02 17.67-14.33 31.98-32 32H416c-5.89 0-10.67-4.77-10.67-10.66S410.11 480 416 480h53.33c5.89-.01 10.66-4.78 10.67-10.67v-64c0-5.89 4.78-10.66 10.67-10.66s10.66 4.77 10.66 10.66zM501.33 42.67v64c0 5.89-4.77 10.66-10.66 10.66S480 112.56 480 106.67v-64c-.01-5.89-4.78-10.66-10.67-10.67H416c-5.89 0-10.67-4.78-10.67-10.67s4.78-10.66 10.67-10.66h53.33c17.67.02 31.98 14.33 32 32zM394.67 375.47v5.88c0 13.25-10.74 23.98-23.99 23.98H141.32c-13.25 0-23.98-10.73-23.99-23.98v-5.88c.02-57.02 36.67-107.57 90.86-125.32a83.42 83.42 0 0 0 47.4 14.74h.82c16.93.01 33.46-5.13 47.4-14.73 54.19 17.74 90.84 68.29 90.86 125.31zM319.03 169.29v11.64c0 34.58-28.04 62.62-62.62 62.62h-.82c-34.58 0-62.62-28.04-62.62-62.62v-11.64c0-34.59 28.04-62.62 62.62-62.62h.82c34.58 0 62.62 28.03 62.62 62.62zM96 10.67c5.89 0 10.67 4.77 10.67 10.66S101.89 32 96 32H42.67c-5.89.01-10.66 4.78-10.67 10.67V96c0 5.89-4.78 10.67-10.67 10.67S10.67 101.89 10.67 96V42.67c.02-17.67 14.33-31.98 32-32zM96 480c5.89 0 10.67 4.78 10.67 10.67s-4.78 10.66-10.67 10.66H42.67c-17.67-.02-31.98-14.33-32-32v-64c0-5.89 4.77-10.66 10.66-10.66S32 399.44 32 405.33v64c.01 5.89 4.78 10.66 10.67 10.67z" fill="#000000" data-original="#000000" class=""></path></g></svg>