<svg xmlns="http://www.w3.org/2000/svg" version="1.1" xmlns:xlink="http://www.w3.org/1999/xlink" xmlns:svgjs="http://svgjs.com/svgjs" width="512" height="512" x="0" y="0" viewBox="0 0 64 64" style="enable-background:new 0 0 512 512" xml:space="preserve" class=""><g><g data-name="Photo Background"><path d="M63.179 25.266a1 1 0 0 0 .805-1.163l-1.059-5.824a1 1 0 0 0-1.162-.805l-5.811 1.057 1.417 7.791ZM52.588 28.679a.996.996 0 0 0 .513-.142l2.38-1.421-1.576-8.663-2.727-.494a1 1 0 0 0-1.162 1.163l1.588 8.735a1 1 0 0 0 .984.822ZM63.874 51.514 59 42.741V28.06l-1.72.31-.28.17v14.2l-4.874 8.774a1 1 0 1 0 1.748.972l.992-1.786L57 52.235V54a1 1 0 0 0 2 0v-1.765l2.134-1.535.992 1.786a1 1 0 0 0 1.748-.972ZM57 49.772l-1.156-.832L57 46.86Zm2 0v-2.913l1.156 2.08ZM.821 25.266l5.81 1.056 1.417-7.791-5.81-1.057a1 1 0 0 0-1.163.805L.016 24.103a1 1 0 0 0 .805 1.163ZM12.822 17.96l-2.727.493-1.575 8.663 2.379 1.421a1 1 0 0 0 1.497-.68l1.588-8.735a1 1 0 0 0-1.162-1.163ZM7 42.74v-14.2l-.28-.17L5 28.06v14.68L.126 51.515a1 1 0 1 0 1.748.972l.992-1.786L5 52.235V54a1 1 0 0 0 2 0v-1.765L9.134 50.7l.992 1.786a1 1 0 1 0 1.748-.972Zm-2 7.032-1.156-.832L5 46.86Zm2 0v-2.913l1.156 2.08ZM45.808 39.394A13 13 0 0 1 42 30.2V19H22v11.201a13 13 0 0 1-3.808 9.193l-2.899 2.899A1 1 0 0 0 16 44h32a1 1 0 0 0 .707-1.707Z" fill="#000000" data-original="#000000" class=""></path><path d="M49 33h-1V14a2.002 2.002 0 0 0-2-2h-1a3.003 3.003 0 0 0-3-3H22a3.003 3.003 0 0 0-3 3h-1a2.002 2.002 0 0 0-2 2v19h-1a1 1 0 0 0 0 2h4a1 1 0 0 0 0-2h-1V14h1a3.003 3.003 0 0 0 3 3h20a3.003 3.003 0 0 0 3-3h1v19h-1a1 1 0 0 0 0 2h4a1 1 0 0 0 0-2Z" fill="#000000" data-original="#000000" class=""></path></g></g></svg>